<?xml version="1.0" standalone="no"?>
<!DOCTYPE svg PUBLIC "-//W3C//DTD SVG 1.1//EN" "http://www.w3.org/Graphics/SVG/1.1/DTD/svg11.dtd" >
<svg xmlns="http://www.w3.org/2000/svg" xmlns:xlink="http://www.w3.org/1999/xlink" version="1.1">
<metadata>
Created by FontForge 20190801 at Tue Jun 19 09:33:31 2018
 By Jimmy Wärting
Copyright \(c\) 2018
</metadata>
<defs>
<font id="Bokonique-Regular" horiz-adv-x="556" >
  <font-face 
    font-family="Bokonique"
    font-weight="400"
    font-stretch="normal"
    units-per-em="1000"
    panose-1="0 0 0 0 0 0 0 0 0 0"
    ascent="800"
    descent="-200"
    x-height="519"
    cap-height="716"
    bbox="-277 -239 1382 939"
    underline-thickness="50"
    underline-position="-100"
    stemh="80"
    stemv="108"
    unicode-range="U+000D-FB14"
  />
<missing-glyph horiz-adv-x="500" 
d="M50 95l170 255l-170 255v-510zM420 50l-170 255l-170 -255h340zM420 650h-340l170 -255zM450 95v510l-170 -255zM0 700h500v-700h-500v700z" />
    <glyph glyph-name=".notdef" horiz-adv-x="500" 
d="M50 95l170 255l-170 255v-510zM420 50l-170 255l-170 -255h340zM420 650h-340l170 -255zM450 95v510l-170 -255zM0 700h500v-700h-500v700z" />
    <glyph glyph-name="NULL" horiz-adv-x="0" 
 />
    <glyph glyph-name="NULL" horiz-adv-x="0" 
 />
    <glyph glyph-name="CR" unicode="&#xd;" horiz-adv-x="250" 
 />
    <glyph glyph-name="space" unicode=" " horiz-adv-x="258" 
 />
    <glyph glyph-name="exclam" unicode="!" horiz-adv-x="210" 
d="M120 123c36 0 63 -27 63 -65c0 -39 -27 -67 -63 -67s-63 28 -63 67c0 38 27 65 63 65zM174 691v-172l-18 -296h-73l-18 296v172h109z" />
    <glyph glyph-name="quotedbl" unicode="&#x22;" horiz-adv-x="362" 
d="M148 700v-246h-88v246h88zM302 700v-246h-88v246h88z" />
    <glyph glyph-name="numbersign" unicode="#" horiz-adv-x="725" 
d="M284 435l-22 -176h178l21 176h-177zM68 521h142l22 179h85l-22 -179h177l22 179h85l-22 -179h139l-7 -86h-143l-22 -176h140l-8 -86h-142l-22 -173h-84l21 173h-177l-22 -173h-84l21 173h-140l8 86h143l21 176h-139z" />
    <glyph glyph-name="dollar" unicode="$" horiz-adv-x="609" 
d="M350 599v-201l5 -2c111 -34 209 -72 209 -202c0 -119 -98 -182 -208 -195l-6 -1v-142h-75v141l-6 1c-89 8 -176 45 -243 105l45 91c54 -49 124 -85 196 -96l8 -2v217l-5 1c-107 33 -204 70 -204 196c0 117 95 176 203 188l6 1v133h75v-132l6 -1c69 -6 139 -28 197 -66
l-43 -93c-47 28 -98 48 -152 58zM266 427l9 -4v178l-8 -1c-39 -7 -82 -28 -82 -78c0 -53 40 -79 81 -95zM350 291v-194l8 2c44 9 88 34 88 89c0 56 -44 82 -87 99z" />
    <glyph glyph-name="percent" unicode="%" horiz-adv-x="973" 
d="M750 415c115 0 185 -78 185 -208c0 -131 -70 -209 -185 -209s-185 78 -185 209c0 130 70 208 185 208zM750 348c-69 0 -108 -52 -108 -141c0 -90 39 -141 108 -141s109 51 109 141c0 89 -40 141 -109 141zM223 702c115 0 185 -78 185 -208c0 -131 -70 -210 -185 -210
s-185 79 -185 210c0 130 70 208 185 208zM223 634c-69 0 -108 -51 -108 -140c0 -90 39 -142 108 -142s109 52 109 142c0 89 -40 140 -109 140zM281 0h-111l515 700h110z" />
    <glyph glyph-name="ampersand" unicode="&#x26;" horiz-adv-x="663" 
d="M281 82c51 0 100 25 144 68c-70 70 -126 127 -170 177c-58 -33 -103 -70 -103 -127c0 -70 57 -118 129 -118zM232 548c0 -37 17 -76 52 -124c68 35 125 71 125 133c0 46 -33 76 -85 76c-56 0 -92 -37 -92 -85zM542 152l114 -111l-59 -60l-109 107
c-62 -59 -134 -93 -211 -93c-125 0 -220 83 -220 196c0 99 72 152 151 194c-46 62 -67 112 -67 162c0 93 73 158 182 158c105 0 177 -61 177 -147c0 -96 -84 -146 -170 -191c38 -43 87 -93 147 -152c24 36 45 78 63 126l75 -56c-21 -50 -45 -95 -73 -133z" />
    <glyph glyph-name="quotesingle" unicode="'" horiz-adv-x="208" 
d="M148 700v-246h-88v246h88z" />
    <glyph glyph-name="parenleft" unicode="(" horiz-adv-x="319" 
d="M199 742h104c-73 -114 -118 -267 -118 -433s45 -319 118 -433h-104c-79 114 -122 267 -122 433s43 319 122 433z" />
    <glyph glyph-name="parenright" unicode=")" horiz-adv-x="345" 
d="M119 742h104c79 -114 122 -267 122 -433s-43 -319 -122 -433h-104c73 114 118 267 118 433s-45 319 -118 433z" />
    <glyph glyph-name="asterisk" unicode="*" horiz-adv-x="348" 
d="M292 458l-89 53l1 -103h-60l1 103l-89 -52l-31 55l90 51l-90 49l31 57l89 -53l-1 103h60l-1 -103l89 52l30 -56l-90 -49l90 -51z" />
    <glyph glyph-name="plus" unicode="+" horiz-adv-x="498" 
d="M463 364v-79h-176v-175h-75v175h-177v79h177v175h75v-175h176z" />
    <glyph glyph-name="comma" unicode="," horiz-adv-x="214" 
d="M109 121c32 0 61 -24 61 -64c0 -20 -7 -37 -18 -53l-57 -86h-59l38 87c-18 12 -27 31 -27 52c0 37 26 64 62 64z" />
    <glyph glyph-name="hyphen" unicode="-" horiz-adv-x="368" 
d="M307 344v-79h-246v79h246z" />
    <glyph glyph-name="period" unicode="." horiz-adv-x="218" 
d="M109 123c36 0 63 -27 63 -65c0 -39 -27 -67 -63 -67s-63 28 -63 67c0 38 27 65 63 65z" />
    <glyph glyph-name="slash" unicode="/" horiz-adv-x="331" 
d="M394 816l-317 -933h-98l317 933h98z" />
    <glyph glyph-name="zero" unicode="0" horiz-adv-x="691" 
d="M346 703c191 0 297 -126 297 -353s-106 -353 -297 -353c-192 0 -298 126 -298 353s106 353 298 353zM346 610c-118 0 -177 -82 -177 -260c0 -177 59 -260 177 -260c117 0 176 83 176 260c0 178 -59 260 -176 260z" />
    <glyph glyph-name="one" unicode="1" horiz-adv-x="387" 
d="M268 700v-700h-118v595h-137v105h255z" />
    <glyph glyph-name="two" unicode="2" horiz-adv-x="588" 
d="M288 705c132 0 223 -69 223 -176c0 -71 -54 -150 -128 -230l-182 -193h342v-106h-498v86l258 277c51 52 85 109 85 149c0 56 -44 90 -117 90c-61 0 -132 -34 -191 -88l-47 91c76 62 165 100 255 100z" />
    <glyph glyph-name="three" unicode="3" horiz-adv-x="539" 
d="M462 625l-200 -216l36 -4c117 -10 197 -78 197 -188c0 -131 -99 -222 -255 -222c-86 0 -176 30 -236 76l49 96c50 -47 115 -73 179 -73c93 0 147 48 147 120c0 76 -55 115 -148 115h-97v69l182 196h-280v105h426v-74z" />
    <glyph glyph-name="four" unicode="4" horiz-adv-x="599" 
d="M383 700l-227 -423h208v166h110v-166h102v-105h-102v-172h-110v172h-334v88l239 440h114z" />
    <glyph glyph-name="five" unicode="5" horiz-adv-x="577" 
d="M505 700l1 -106h-318v-151l96 1c152 0 250 -90 250 -213c0 -142 -102 -235 -259 -235c-83 0 -180 32 -249 80l47 96c56 -47 126 -74 189 -74c91 0 146 47 146 126c0 71 -55 115 -145 115c-42 0 -137 -4 -184 -9v370h426z" />
    <glyph glyph-name="six" unicode="6" horiz-adv-x="615" 
d="M332 360c-95 0 -151 -61 -150 -133c-1 -61 44 -130 145 -130c85 0 142 49 142 134c0 80 -52 129 -137 129zM350 705c69 0 152 -21 209 -53l-46 -89c-43 28 -102 44 -155 44c-136 0 -199 -102 -195 -253c37 65 103 99 191 99c140 0 225 -87 225 -223
c0 -145 -97 -235 -246 -235c-177 0 -285 126 -285 341c0 223 117 369 302 369z" />
    <glyph glyph-name="seven" unicode="7" horiz-adv-x="570" 
d="M546 700v-90l-279 -610h-125l272 594h-272l-1 -98h-104v204h509z" />
    <glyph glyph-name="eight" unicode="8" horiz-adv-x="626" 
d="M313 323c-99 0 -157 -43 -157 -116c0 -76 57 -119 157 -119s158 43 158 119c0 73 -58 116 -158 116zM313 620c-84 0 -134 -38 -134 -103s50 -102 134 -102c85 0 134 37 134 102s-49 103 -134 103zM313 705c144 0 235 -69 235 -181c0 -68 -39 -121 -104 -150
c85 -28 139 -93 139 -178c0 -125 -104 -201 -270 -201c-165 0 -269 76 -269 199c0 86 55 152 144 180c-68 31 -109 86 -109 154c0 110 91 177 234 177z" />
    <glyph glyph-name="nine" unicode="9" horiz-adv-x="615" 
d="M289 340c95 0 151 61 150 133c1 61 -44 130 -145 130c-85 0 -142 -49 -142 -134c0 -80 52 -129 137 -129zM271 -5c-69 0 -152 21 -209 53l46 89c43 -28 102 -44 155 -44c136 0 199 102 195 253c-37 -65 -103 -99 -191 -99c-140 0 -225 87 -225 223c0 145 97 235 246 235
c177 0 285 -126 285 -341c0 -223 -117 -369 -302 -369z" />
    <glyph glyph-name="colon" unicode=":" horiz-adv-x="212" 
d="M109 123c36 0 63 -27 63 -65c0 -39 -27 -67 -63 -67s-63 28 -63 67c0 38 27 65 63 65zM109 420c36 0 63 -27 63 -65c0 -39 -27 -67 -63 -67s-63 28 -63 67c0 38 27 65 63 65z" />
    <glyph glyph-name="semicolon" unicode=";" horiz-adv-x="216" 
d="M109 121c32 0 61 -24 61 -64c0 -20 -7 -37 -18 -53l-57 -86h-59l38 87c-18 12 -27 31 -27 52c0 37 26 64 62 64zM109 288c-36 0 -63 28 -63 67c0 38 27 65 63 65s63 -27 63 -65c0 -39 -27 -67 -63 -67z" />
    <glyph glyph-name="less" unicode="&#x3c;" horiz-adv-x="498" 
d="M463 562v-89l-351 -147l351 -148v-89l-428 186v101z" />
    <glyph glyph-name="equal" unicode="=" horiz-adv-x="498" 
d="M463 259v-79h-428v79h428zM463 469v-79h-428v79h428z" />
    <glyph glyph-name="greater" unicode="&#x3e;" horiz-adv-x="498" 
d="M35 94v89l351 147l-351 148v89l428 -186v-101z" />
    <glyph glyph-name="question" unicode="?" horiz-adv-x="443" 
d="M209 123c36 0 63 -27 63 -65c0 -39 -27 -67 -63 -67s-63 28 -63 67c0 38 27 65 63 65zM95 495l-90 1c4 127 83 199 207 199c120 0 200 -58 200 -167c0 -158 -158 -165 -158 -300h-88c0 161 139 162 139 283c0 58 -41 86 -103 86c-65 0 -104 -34 -107 -102z" />
    <glyph glyph-name="at" unicode="@" horiz-adv-x="974" 
d="M469 408c-74 0 -124 -60 -124 -134c0 -77 50 -141 126 -141c79 0 128 62 128 140c0 75 -51 135 -130 135zM493 702c257 0 447 -181 447 -430c0 -151 -79 -249 -191 -249c-61 0 -105 25 -116 81l-2 20c-41 -60 -103 -89 -172 -89c-122 0 -231 94 -231 234
c0 132 87 239 220 239c88 0 148 -54 158 -75v65h108v-349c0 -38 19 -54 46 -54c49 0 94 71 94 174c0 199 -139 352 -361 352c-208 0 -373 -156 -373 -354c0 -195 156 -337 360 -337c59 0 137 19 193 59l41 -73c-59 -42 -158 -69 -234 -69c-254 0 -446 179 -446 420
c0 246 201 435 459 435z" />
    <glyph glyph-name="bracketleft" unicode="[" horiz-adv-x="345" 
d="M319 742v-92h-124v-682h124v-92h-227v866h227z" />
    <glyph glyph-name="backslash" unicode="\" horiz-adv-x="545" 
d="M130 816h98l317 -933h-98z" />
    <glyph glyph-name="bracketright" unicode="]" horiz-adv-x="473" 
d="M154 742h227v-866h-227v92h124v682h-124v92z" />
    <glyph glyph-name="asciicircum" unicode="^" horiz-adv-x="538" 
d="M505 132h-89l-147 323l-148 -323h-89l186 394h101z" />
    <glyph glyph-name="underscore" unicode="_" horiz-adv-x="566" 
d="M566 -134v-70h-566v70h566z" />
    <glyph glyph-name="grave" unicode="`" horiz-adv-x="350" 
d="M174 757l106 -148h-102l-122 98z" />
    <glyph glyph-name="braceleft" unicode="{" horiz-adv-x="329" 
d="M214 580v-164c0 -64 -19 -95 -70 -108c51 -12 70 -43 70 -107v-164c0 -50 24 -71 95 -71v-92h-43c-112 0 -156 35 -156 128v206c0 38 -13 53 -43 53h-31v95h31c30 0 43 15 43 53v207c0 92 44 127 156 127h43v-92c-71 0 -95 -21 -95 -71z" />
    <glyph glyph-name="bar" unicode="|" horiz-adv-x="269" 
d="M178 810v-926h-87v926h87z" />
    <glyph glyph-name="braceright" unicode="}" horiz-adv-x="402" 
d="M371 356h31v-95h-31c-30 0 -43 -15 -43 -53v-206c0 -93 -44 -128 -156 -128h-43v92c71 0 95 21 95 71v164c0 64 19 95 70 108c-51 12 -70 43 -70 107v164c0 50 -24 71 -95 71v92h43c112 0 156 -35 156 -127v-207c0 -38 13 -53 43 -53z" />
    <glyph glyph-name="asciitilde" unicode="~" horiz-adv-x="498" 
d="M163 395c64 0 111 -57 152 -57c25 0 39 17 39 50h79c0 -93 -33 -140 -97 -140c-68 0 -110 57 -151 57c-26 0 -39 -17 -39 -50h-80c0 93 33 140 97 140z" />
    <glyph glyph-name="nbspace" unicode="&#xa0;" horiz-adv-x="258" 
 />
    <glyph glyph-name="sterling" unicode="&#xa3;" horiz-adv-x="547" 
d="M238 298v-202h280v-96h-481v96h83v202h-83v84h83v101c0 142 77 222 213 222c76 0 147 -32 198 -90l-47 -92c-42 50 -90 76 -139 76c-69 0 -107 -40 -107 -119v-98h176v-84h-176z" />
    <glyph glyph-name="yen" unicode="&#xa5;" horiz-adv-x="628" 
d="M636 700l-208 -378h147v-50h-174l-21 -38v-45h195v-50h-195v-139h-118v139h-187v50h187v40l-24 43h-163v50h136l-210 378h119l200 -341l196 341h120z" />
    <glyph glyph-name="section" unicode="&#xa7;" horiz-adv-x="499" 
d="M242 376c-64 0 -100 -24 -100 -61c0 -47 56 -80 127 -80c64 0 97 27 97 64c0 46 -52 77 -124 77zM259 694c65 0 129 -17 189 -53l-36 -74c-54 31 -107 46 -152 46c-59 0 -97 -24 -97 -59c0 -113 305 -62 305 -248c0 -58 -48 -111 -108 -129c60 -26 87 -56 87 -114
c0 -86 -82 -148 -205 -148c-81 0 -161 27 -221 76l35 74c57 -45 122 -68 183 -68c62 0 105 28 105 63c0 112 -302 65 -302 247c0 63 47 109 122 127c-76 31 -101 63 -101 116c0 84 77 144 196 144z" />
    <glyph glyph-name="copyright" unicode="&#xa9;" horiz-adv-x="745" 
d="M373 629c-160 0 -282 -128 -282 -281s121 -279 280 -279c160 0 283 128 283 281s-122 279 -281 279zM378 520c48 0 97 -20 131 -53l-35 -42c-26 26 -60 42 -95 42c-68 0 -121 -52 -121 -117c0 -66 53 -119 121 -119c33 0 69 15 95 40l35 -39c-35 -34 -84 -56 -133 -56
c-100 0 -178 75 -178 173c0 97 79 171 180 171zM373 689c190 0 338 -153 338 -339c0 -185 -149 -341 -340 -341c-190 0 -337 154 -337 339s148 341 339 341z" />
    <glyph glyph-name="guillemotleft" unicode="&#xab;" horiz-adv-x="456" 
d="M235 434l-107 -174l107 -174h-96l-116 174l116 174h96zM415 434l-107 -174l107 -174h-96l-116 174l116 174h96z" />
    <glyph glyph-name="registered" unicode="&#xae;" horiz-adv-x="745" 
d="M371 69c160 0 283 128 283 281s-122 279 -281 279c-160 0 -282 -128 -282 -281s121 -279 280 -279zM380 480h-79v-140h79c52 0 83 26 83 71s-31 69 -83 69zM373 689c190 0 338 -153 338 -339c0 -185 -149 -341 -340 -341c-190 0 -337 154 -337 339s148 341 339 341z
M517 412c0 -53 -25 -91 -71 -109l78 -113h-66l-63 102h-94v-102h-57v338h136c88 0 137 -42 137 -116z" />
    <glyph glyph-name="degree" unicode="&#xb0;" horiz-adv-x="346" 
d="M197 810c64 0 116 -52 116 -115s-52 -115 -116 -115c-63 0 -116 52 -116 115s52 115 116 115zM197 759c-37 0 -67 -30 -67 -64s30 -63 67 -63s67 29 67 63s-30 64 -67 64z" />
    <glyph glyph-name="plusminus" unicode="&#xb1;" horiz-adv-x="498" 
d="M35 20v80h428v-80h-428zM287 430h176v-78h-176v-171h-75v171h-177v78h177v171h75v-171z" />
    <glyph glyph-name="twosuperior" unicode="&#xb2;" horiz-adv-x="383" 
d="M191 703c82 0 139 -41 139 -105c0 -43 -32 -90 -80 -136l-108 -109h206v-66h-311v56l157 161c29 28 49 60 49 82c0 30 -24 47 -65 47c-36 0 -80 -20 -117 -52l-33 62c49 37 105 60 163 60z" />
    <glyph glyph-name="threesuperior" unicode="&#xb3;" horiz-adv-x="355" 
d="M300 649l-119 -120l22 -2c69 -7 117 -47 117 -112c0 -77 -62 -132 -159 -132c-55 0 -113 19 -150 46l35 66c31 -31 69 -48 109 -48c52 0 83 26 83 67s-31 62 -84 62h-62v46l112 114h-173v62h269v-49z" />
    <glyph glyph-name="mu" unicode="&#xb5;" horiz-adv-x="675" 
d="M475 532h115v-532h-115v104c-36 -74 -103 -107 -190 -108c-30 0 -56 5 -80 13v-203h-115v726h115v-299c0 -80 47 -129 124 -129c92 2 146 73 146 166v262z" />
    <glyph glyph-name="paragraph" unicode="&#xb6;" horiz-adv-x="615" 
d="M523 742v-851h-88v779h-131v-779h-87v465h-31c-149 0 -187 115 -187 189c0 100 63 197 225 197h299z" />
    <glyph glyph-name="onesuperior" unicode="&#xb9;" horiz-adv-x="262" 
d="M183 287h-84v344h-83v69h167v-413z" />
    <glyph glyph-name="guillemotright" unicode="&#xbb;" horiz-adv-x="468" 
d="M76 87l107 174l-107 174h96l116 -174l-116 -174h-96zM256 87l107 174l-107 174h96l116 -174l-116 -174h-96z" />
    <glyph glyph-name="onequarter" unicode="&#xbc;" horiz-adv-x="817" 
d="M99 631h-83v69h167v-413h-84v344zM565 700h110l-514 -700h-111zM795 159v-62h-61v-97h-79v97h-204v59l143 257h80l-139 -254h120v102h79v-102h61z" />
    <glyph glyph-name="onehalf" unicode="&#xbd;" horiz-adv-x="839" 
d="M99 631h-83v69h167v-413h-84v344zM565 700h110l-514 -700h-111zM647 416c82 0 139 -41 139 -105c0 -43 -32 -90 -80 -136l-108 -108h206v-67h-311v57l157 160c29 29 49 61 49 83c0 29 -24 47 -65 47c-36 0 -80 -20 -117 -52l-33 61c49 38 105 60 163 60z" />
    <glyph glyph-name="threequarters" unicode="&#xbe;" horiz-adv-x="878" 
d="M627 700h110l-514 -700h-111zM857 159v-62h-61v-97h-79v97h-204v59l143 257h80l-139 -254h120v102h79v-102h61zM154 476h-62v46l112 114h-173v62h269v-49l-119 -120l22 -2c69 -7 117 -47 117 -112c0 -77 -62 -132 -159 -132c-55 0 -113 19 -150 46l35 66
c31 -31 69 -48 109 -48c52 0 83 26 83 67s-31 62 -84 62z" />
    <glyph glyph-name="multiply" unicode="&#xd7;" horiz-adv-x="498" 
d="M427 448l-123 -123l123 -124l-53 -56l-124 125l-125 -125l-53 56l123 124l-123 123l53 56l125 -125l124 125z" />
    <glyph glyph-name="divide" unicode="&#xf7;" horiz-adv-x="498" 
d="M243 217c35 0 61 -27 61 -63c0 -37 -26 -64 -61 -64s-60 27 -60 64c0 36 25 63 60 63zM243 572c35 0 61 -27 61 -63c0 -37 -26 -64 -61 -64s-60 27 -60 64c0 36 25 63 60 63zM463 364v-79h-428v79h428z" />
    <glyph glyph-name="tilde" unicode="&#x2dc;" horiz-adv-x="350" 
d="M106 758c55 0 85 -55 119 -55c25 0 38 17 38 49h73c0 -87 -31 -131 -91 -131s-85 55 -120 55c-24 0 -37 -17 -37 -49h-74c0 87 32 131 92 131z" />
    <glyph glyph-name="quoteleft" unicode="&#x2018;" horiz-adv-x="214" 
d="M111 706h59l-38 -87c18 -12 27 -31 27 -52c0 -38 -26 -64 -62 -64c-32 0 -61 23 -61 64c0 20 7 36 18 52z" />
    <glyph glyph-name="quoteright" unicode="&#x2019;" horiz-adv-x="214" 
d="M109 700c32 0 61 -23 61 -64c0 -20 -7 -36 -18 -52l-57 -86h-59l38 86c-18 12 -27 31 -27 52c0 38 26 64 62 64z" />
    <glyph glyph-name="quotedblleft" unicode="&#x201c;" horiz-adv-x="296" 
d="M111 706h59l-38 -87c18 -12 27 -31 27 -52c0 -37 -26 -64 -62 -64c-32 0 -61 24 -61 64c0 20 7 37 18 53zM260 706h59l-38 -87c18 -12 27 -31 27 -52c0 -37 -26 -64 -62 -64c-32 0 -61 24 -61 64c0 20 7 37 18 53z" />
    <glyph glyph-name="quotedblright" unicode="&#x201d;" horiz-adv-x="333" 
d="M109 701c32 0 61 -24 61 -64c0 -20 -7 -37 -18 -53l-57 -86h-59l38 87c-18 12 -27 31 -27 52c0 37 26 64 62 64zM258 701c32 0 61 -24 61 -64c0 -20 -7 -37 -18 -53l-57 -86h-59l38 87c-18 12 -27 31 -27 52c0 37 26 64 62 64z" />
    <glyph glyph-name="quotedblbase" unicode="&#x201e;" horiz-adv-x="363" 
d="M109 121c32 0 61 -24 61 -64c0 -20 -7 -37 -18 -53l-57 -86h-59l38 87c-18 12 -27 31 -27 52c0 37 26 64 62 64zM258 121c32 0 61 -24 61 -64c0 -20 -7 -37 -18 -53l-57 -86h-59l38 87c-18 12 -27 31 -27 52c0 37 26 64 62 64z" />
    <glyph glyph-name="ellipsis" unicode="&#x2026;" horiz-adv-x="608" 
d="M106 118c34 0 60 -26 60 -63s-26 -64 -60 -64s-60 27 -60 64s26 63 60 63zM304 118c34 0 60 -26 60 -63s-26 -64 -60 -64s-60 27 -60 64s26 63 60 63zM502 118c34 0 60 -26 60 -63s-26 -64 -60 -64s-60 27 -60 64s26 63 60 63z" />
    <glyph glyph-name="perthousand" unicode="&#x2030;" horiz-adv-x="1420" 
d="M750 415c115 0 185 -78 185 -208c0 -131 -70 -209 -185 -209s-185 78 -185 209c0 130 70 208 185 208zM750 348c-69 0 -108 -52 -108 -141c0 -90 39 -141 108 -141s109 51 109 141c0 89 -40 141 -109 141zM1196 415c115 0 185 -78 185 -208c0 -131 -70 -209 -185 -209
s-185 78 -185 209c0 130 70 208 185 208zM1196 348c-69 0 -108 -52 -108 -141c0 -90 39 -141 108 -141s109 51 109 141c0 89 -40 141 -109 141zM223 702c115 0 185 -78 185 -208c0 -131 -70 -210 -185 -210s-185 79 -185 210c0 130 70 208 185 208zM223 634
c-69 0 -108 -51 -108 -140c0 -90 39 -142 108 -142s109 52 109 142c0 89 -40 140 -109 140zM281 0h-111l515 700h110z" />
    <glyph glyph-name="guilsinglleft" unicode="&#x2039;" horiz-adv-x="276" 
d="M235 434l-107 -174l107 -174h-96l-116 174l116 174h96z" />
    <glyph glyph-name="guilsinglright" unicode="&#x203a;" horiz-adv-x="288" 
d="M76 86l107 175l-107 174h96l116 -174l-116 -175h-96z" />
    <glyph glyph-name="fraction" unicode="&#x2044;" horiz-adv-x="171" 
d="M-166 0h-111l515 700h110z" />
    <glyph glyph-name="Euro" unicode="&#x20ac;" horiz-adv-x="790" 
d="M693 188l69 -78c-70 -70 -171 -115 -271 -115c-163 0 -297 98 -345 240h-109v64h94c-3 17 -4 34 -4 52s1 36 4 53h-94v64h110c49 139 184 235 349 235c99 0 198 -41 265 -108l-68 -86c-52 55 -124 89 -196 89c-96 0 -179 -52 -221 -130h251v-64h-275
c-3 -17 -5 -34 -5 -52s2 -36 6 -53h274v-64h-251c42 -78 125 -130 221 -130c70 0 142 32 196 83z" />
    <glyph glyph-name="trademark" unicode="&#x2122;" horiz-adv-x="886" 
d="M325 700v-74h-123v-346h-85v346h-122v74h330zM834 700v-420h-77v297l-121 -254h-56l-120 254v-297h-78v420h98l128 -267l128 267h98z" />
    <glyph glyph-name="uni0531" unicode="&#x531;" horiz-adv-x="760" 
d="M730 47l-71 -76l-80 79c-51 -46 -125 -63 -204 -63c-189 0 -305 112 -305 295v418h118v-418c0 -118 73 -189 188 -189c51 0 93 8 124 31l-68 65l73 70l49 -46c5 20 7 43 7 69v418h118v-418c0 -56 -10 -111 -36 -153z" />
    <glyph glyph-name="uni0532" unicode="&#x532;" horiz-adv-x="729" 
d="M188 418v-149h511v-105h-511v-164h-118v418c0 183 115 295 304 295s305 -112 305 -295h-118c0 118 -73 189 -188 189c-114 0 -185 -70 -185 -189z" />
    <glyph glyph-name="uni0533" unicode="&#x533;" horiz-adv-x="775" 
d="M298 271h223v147c0 117 -73 189 -188 189c-92 0 -163 -46 -180 -126c-6 -28 -5 -67 3 -94c20 -68 68 -116 142 -116zM639 418v-147h106v-106h-106v-165h-118v165h-233c-188 0 -258 144 -258 272c0 100 50 276 304 276c189 0 305 -112 305 -295z" />
    <glyph glyph-name="uni0534" unicode="&#x534;" horiz-adv-x="765" 
d="M629 271h106v-106h-106v-165h-118v419c0 119 -71 189 -185 189c-116 0 -188 -71 -188 -190h-118c0 194 112 295 304 295c189 0 305 -112 305 -295v-147z" />
    <glyph glyph-name="uni0535" unicode="&#x535;" horiz-adv-x="739" 
d="M699 400h-511v-118c0 -119 71 -189 185 -189c115 0 188 71 188 189h116c0 -183 -114 -295 -303 -295s-304 112 -304 295v418h118v-195h511v-105z" />
    <glyph glyph-name="uni0536" unicode="&#x536;" horiz-adv-x="822" 
d="M679 105h103v-106h-742v181h118v-75h269c130 8 234 121 234 255c0 139 -112 247 -249 247c-128 0 -235 -93 -250 -218l-117 30c28 171 178 294 366 294c209 0 371 -153 371 -353c0 -98 -39 -191 -103 -255z" />
    <glyph glyph-name="uni0537" unicode="&#x537;" horiz-adv-x="666" 
d="M646 400h-438v-293h368v-107h-486v700h118v-195h438v-105z" />
    <glyph glyph-name="uni0538" unicode="&#x538;" horiz-adv-x="724" 
d="M679 418h-118c0 118 -73 189 -188 189c-114 0 -185 -70 -185 -189v-312h491v-106h-609v418c0 183 115 295 304 295s305 -112 305 -295z" />
    <glyph glyph-name="uni0539" unicode="&#x539;" horiz-adv-x="885" 
d="M659 230h-238v-127h36c98 0 155 46 202 127zM812 360v-24h43v-106h-65c-53 -142 -182 -230 -333 -230h-149v336h382c1 6 1 20 1 26c0 136 -111 245 -249 245s-252 -108 -252 -247v-360h-120v360c0 207 169 353 371 353c204 0 371 -148 371 -353z" />
    <glyph glyph-name="uni053A" unicode="&#x53a;" horiz-adv-x="775" 
d="M521 276v124h-223c-73 0 -123 -20 -145 -94c-8 -27 -6 -59 0 -87c17 -80 88 -126 180 -126c114 0 188 65 188 183zM288 505h233v195h118v-195h106v-105h-106v-124c0 -183 -116 -289 -305 -289c-254 0 -304 169 -304 270c0 111 70 248 258 248z" />
    <glyph glyph-name="uni053B" unicode="&#x53b;" horiz-adv-x="739" 
d="M394 554c189 0 313 -112 305 -295l-1 -23h-117v23c0 118 -73 189 -188 189c-114 0 -185 -70 -185 -189v-259h-118v700h118v-196c49 33 112 50 186 50z" />
    <glyph glyph-name="uni053C" unicode="&#x53c;" horiz-adv-x="540" 
d="M208 700v-594h307v-106h-425v700h118z" />
    <glyph glyph-name="uni053D" unicode="&#x53d;" horiz-adv-x="967" 
d="M804 505h118v-223c0 -183 -115 -295 -304 -295s-305 112 -305 295v116h-105v-398h-118v700h118v-195h223v-223c0 -118 73 -189 188 -189c114 0 185 70 185 189v223z" />
    <glyph glyph-name="uni053E" unicode="&#x53e;" horiz-adv-x="822" 
d="M412 93c137 0 249 110 249 249s-112 252 -249 252c-138 0 -252 -113 -252 -252s115 -249 252 -249zM148 599h-88v101h702v-101h-88c67 -63 108 -156 108 -257c0 -200 -162 -355 -371 -355s-371 155 -371 355c0 101 41 194 108 257z" />
    <glyph glyph-name="uni053F" unicode="&#x53f;" horiz-adv-x="729" 
d="M541 505h118v-505h-118v193c-49 -32 -112 -49 -186 -49c-181 0 -305 106 -305 295v261h118v-261c0 -118 73 -189 188 -189c114 0 185 70 185 189v66z" />
    <glyph glyph-name="uni0540" unicode="&#x540;" horiz-adv-x="684" 
d="M176 107h493v-107h-639v106l341 489l-85 60l65 94l184 -127z" />
    <glyph glyph-name="uni0541" unicode="&#x541;" horiz-adv-x="807" 
d="M220 153c0 -53 92 -66 133 -66h9c48 0 101 10 149 33c-47 46 -143 84 -206 84c-33 0 -85 -8 -85 -51zM772 367v-28c0 -87 -32 -171 -97 -236c16 -18 30 -35 36 -45l-74 -63c-13 17 -28 33 -43 49c-54 -29 -128 -55 -228 -55c-230 0 -259 133 -259 174
c0 40 26 144 202 144c104 0 208 -53 284 -123h1l23 33c21 35 34 76 34 121v34c0 135 -115 238 -249 238c-128 0 -235 -94 -250 -218l-117 30c28 171 178 294 366 294c208 0 371 -151 371 -349z" />
    <glyph glyph-name="uni0542" unicode="&#x542;" horiz-adv-x="765" 
d="M629 106h106v-106h-224v420c0 119 -71 189 -185 189c-116 0 -188 -71 -188 -191h-118c0 194 112 295 304 295c189 0 305 -112 305 -295v-312z" />
    <glyph glyph-name="uni0543" unicode="&#x543;" horiz-adv-x="714" 
d="M172 112v-5h366l-209 329c-8 -5 -59 -39 -111 -132c-34 -60 -46 -124 -46 -192zM423 510l261 -403v-107h-639v107c0 143 113 336 221 427l-66 104l100 62l58 -90c83 60 145 95 228 136l67 -96c-67 -38 -105 -60 -160 -93c-25 -15 -49 -31 -70 -47z" />
    <glyph glyph-name="uni0544" unicode="&#x544;" horiz-adv-x="805" 
d="M785 700v-106h-106v-312c0 -183 -115 -295 -304 -295s-305 112 -305 295v418h118v-418c0 -118 73 -189 188 -189c114 0 185 70 185 189v418h224z" />
    <glyph glyph-name="uni0545" unicode="&#x545;" horiz-adv-x="644" 
d="M474 366c124 -23 150 -118 150 -181c0 -86 -74 -198 -307 -198c-180 0 -267 80 -277 89l52 99c7 -9 73 -82 236 -82c132 0 170 71 170 122c0 72 -84 88 -142 88h-296v104h296c82 0 120 43 120 95c0 58 -48 105 -141 105c-89 0 -146 -43 -182 -75l-50 103
c10 8 97 78 235 78c147 0 259 -79 259 -200c0 -109 -93 -140 -123 -147z" />
    <glyph glyph-name="uni0546" unicode="&#x546;" horiz-adv-x="750" 
d="M612 337h118v-55c0 -123 -61 -295 -306 -295c-258 0 -303 190 -303 295v312h-106v106h224v-418c0 -119 71 -189 188 -189c137 0 185 96 185 189v55z" />
    <glyph glyph-name="uni0547" unicode="&#x547;" horiz-adv-x="802" 
d="M654 310l118 -30c-29 -169 -179 -293 -366 -293c-209 0 -371 155 -371 355c0 197 148 343 340 360l37 64l308 -175l-57 -100c-47 27 -94 53 -142 79c-6 3 -54 27 -117 27c-135 0 -249 -116 -249 -255s115 -249 252 -249c127 0 232 94 247 217z" />
    <glyph glyph-name="uni0548" unicode="&#x548;" horiz-adv-x="749" 
d="M70 -3v418c0 183 115 295 304 295s305 -112 305 -295v-418h-118v418c0 118 -73 189 -188 189c-114 0 -185 -70 -185 -189v-418h-118z" />
    <glyph glyph-name="uni0549" unicode="&#x549;" horiz-adv-x="802" 
d="M148 389l-118 31c30 169 179 293 366 293c209 0 371 -155 371 -358c0 -195 -148 -339 -340 -357l-37 -65l-308 176l57 100l137 -76c13 -8 63 -30 119 -30c138 0 252 116 252 255s-115 249 -252 249c-127 0 -232 -94 -247 -218z" />
    <glyph glyph-name="uni054A" unicode="&#x54a;" horiz-adv-x="827" 
d="M378 713c210 0 379 -142 379 -353v-360h-121v360c0 82 -45 203 -187 239v-351h-121v352c-139 -35 -185 -150 -191 -211l-117 31c14 96 111 293 358 293z" />
    <glyph glyph-name="uni054B" unicode="&#x54b;" horiz-adv-x="822" 
d="M507 109c132 41 166 180 166 251c0 139 -124 247 -264 247c-90 0 -176 -45 -216 -124c11 -3 114 -34 159 -51c106 -40 170 -110 170 -228c0 -34 -5 -65 -15 -95zM782 358c0 -96 -36 -195 -109 -252h109v-106h-742v181h118v-75h249c9 26 14 50 14 73
c0 77 -48 136 -108 155c-67 21 -248 79 -268 86c28 171 178 293 366 293c209 0 371 -153 371 -355z" />
    <glyph glyph-name="uni054C" unicode="&#x54c;" horiz-adv-x="810" 
d="M785 271v-106h-106v-165h-118v418c0 119 -71 189 -185 189c-115 0 -188 -71 -188 -189v-418h-118v418c0 183 116 295 305 295s304 -112 304 -295v-147h106z" />
    <glyph glyph-name="uni054D" unicode="&#x54d;" horiz-adv-x="749" 
d="M679 700v-418c0 -183 -115 -295 -304 -295s-305 112 -305 295v418h118v-418c0 -118 73 -189 188 -189c114 0 185 70 185 189v418h118z" />
    <glyph glyph-name="uni054E" unicode="&#x54e;" horiz-adv-x="765" 
d="M629 106h106v-106h-224v196c-49 -32 -112 -49 -186 -49c-185 0 -305 107 -305 295v63h118v-78c0 -105 78 -174 190 -174c109 0 183 64 183 189v258h118v-594z" />
    <glyph glyph-name="uni054F" unicode="&#x54f;" horiz-adv-x="580" 
d="M173 521c0 -73 78 -100 171 -131c94 -32 206 -69 206 -198c0 -128 -110 -205 -272 -205c-130 0 -258 76 -258 216v6h107c0 -97 82 -116 164 -116s128 36 128 90c0 69 -73 97 -155 125c-105 36 -223 76 -223 208c0 122 103 197 248 197c118 0 243 -49 243 -177v-4h-108
c0 60 -64 81 -113 81h-18c-77 0 -120 -37 -120 -92z" />
    <glyph glyph-name="uni0550" unicode="&#x550;" horiz-adv-x="699" 
d="M188 417v-418h-118v418c0 183 115 295 304 295s305 -112 305 -295h-118c0 118 -73 189 -188 189c-114 0 -185 -70 -185 -189z" />
    <glyph glyph-name="uni0551" unicode="&#x551;" horiz-adv-x="644" 
d="M330 414c56 0 98 43 98 99c0 57 -45 92 -98 92s-97 -35 -97 -93c0 -55 40 -98 97 -98zM447 380c139 -18 177 -107 177 -183v-11c0 -71 -74 -199 -304 -199c-183 0 -270 80 -280 89l52 99c7 -8 73 -82 236 -82c132 0 170 76 170 128c0 75 -83 90 -142 90h-296v104h106
c-19 15 -54 56 -54 119c0 111 109 179 219 179c114 0 217 -73 217 -182c0 -58 -28 -130 -101 -151z" />
    <glyph glyph-name="uni0552" unicode="&#x552;" horiz-adv-x="498" 
d="M208 505h255v-105h-255v-400h-118v700h118v-195z" />
    <glyph glyph-name="uni0553" unicode="&#x553;" horiz-adv-x="812" 
d="M155 350c0 -131 83 -223 192 -250v500c-109 -26 -192 -120 -192 -250zM465 600v-500c109 26 191 118 191 249c0 130 -82 226 -191 251zM406 713c209 0 371 -162 371 -362s-162 -364 -371 -364s-371 164 -371 364c0 201 162 362 371 362z" />
    <glyph glyph-name="uni0554" unicode="&#x554;" horiz-adv-x="714" 
d="M375 604c-89 0 -163 -70 -163 -159c0 -90 74 -161 163 -161c88 0 160 71 160 161c0 89 -72 159 -160 159zM212 222v-116h467v-106h-659v106h72v339c0 156 127 268 282 268c159 0 282 -116 282 -268s-123 -270 -282 -270c-61 0 -116 17 -162 47z" />
    <glyph glyph-name="uni0555" unicode="&#x555;" horiz-adv-x="812" 
d="M777 351c0 -200 -162 -364 -371 -364s-371 164 -371 364c0 201 162 362 371 362s371 -162 371 -362zM155 349c0 -148 107 -256 250 -256c145 0 251 112 251 258s-106 256 -249 256c-145 0 -252 -110 -252 -258z" />
    <glyph glyph-name="uni0556" unicode="&#x556;" horiz-adv-x="805" 
d="M646 400h-188v-300c152 40 192 164 192 251c0 19 -2 35 -4 49zM196 505h144v95c-56 0 -125 -44 -144 -95zM458 709v-204h280c3 -4 32 -48 32 -163c0 -181 -142 -355 -371 -355c-202 0 -339 136 -366 293l111 29c9 -69 67 -178 196 -209v300h-307c9 174 170 314 361 314
c23 0 43 -2 64 -5z" />
    <glyph glyph-name="uni0561" unicode="&#x561;" horiz-adv-x="1045" 
d="M845 532h115v-532h-115v95c-36 -74 -103 -109 -187 -109c-96 0 -161 46 -186 124l-7 -15c-36 -74 -108 -109 -191 -109c-126 0 -199 79 -199 206v340h115v-308c0 -80 47 -129 124 -129c92 0 146 72 146 164v273h115v-310c0 -79 47 -127 123 -127c93 0 147 73 147 166v271
z" />
    <glyph glyph-name="uni0562" unicode="&#x562;" horiz-adv-x="689" 
d="M619 86v-86h-414v-234h-115v766h115v-93c38 74 106 106 190 106c130 0 204 -78 204 -205v-139h-115v107c0 80 -48 129 -128 129c-88 0 -143 -62 -151 -145v-206h414z" />
    <glyph glyph-name="uni0563" unicode="&#x563;" horiz-adv-x="737" 
d="M314 86h163v186c0 103 -67 175 -163 175s-164 -73 -164 -175c0 -101 67 -186 164 -186zM477 448v84h115v-446h115v-86h-115v-234h-115v234h-187c-160 0 -255 120 -255 275c0 161 103 270 253 270c86 0 150 -35 189 -97z" />
    <glyph glyph-name="uni0564" unicode="&#x564;" horiz-adv-x="739" 
d="M594 86h115v-86h-115v-234h-115v542c0 80 -48 129 -128 129c-88 0 -143 -62 -151 -145v-292h-115v532h115v-93c38 74 106 106 190 106c130 0 204 -78 204 -205v-254z" />
    <glyph glyph-name="uni0565" unicode="&#x565;" horiz-adv-x="699" 
d="M614 446h-414v-222c0 -80 48 -129 128 -129c88 0 143 62 151 145v91h115v-331h-115v93c-38 -74 -106 -106 -189 -106c-131 0 -205 78 -205 205v591h115v-251h414v-86z" />
    <glyph glyph-name="uni0566" unicode="&#x566;" horiz-adv-x="737" 
d="M314 84c96 0 163 80 163 181c0 103 -67 183 -163 183s-164 -81 -164 -183c0 -101 67 -181 164 -181zM477 449v84h115v-672h115v-94h-230v317c-38 -62 -102 -96 -185 -96c-155 0 -257 119 -257 280s103 278 256 278c83 0 147 -35 186 -97z" />
    <glyph glyph-name="uni0567" unicode="&#x567;" horiz-adv-x="579" 
d="M484 0h-394v783h115v-251h354v-86h-354v-351h279v-95z" />
    <glyph glyph-name="uni0568" unicode="&#x568;" horiz-adv-x="689" 
d="M599 0h-115v308c0 80 -48 129 -128 129c-88 0 -143 -62 -151 -145v-432h414v-94h-529v766h115v-93c38 74 106 106 190 106c130 0 204 -78 204 -205v-340z" />
    <glyph glyph-name="uni0569" unicode="&#x569;" horiz-adv-x="723" 
d="M541 216h-150v-134c8 -1 16 -1 23 -1c91 0 127 63 127 135zM643 302h45v-86h-46c-12 -116 -70 -222 -245 -222c-24 0 -52 2 -82 7v301h226c-11 86 -87 148 -174 148c-95 0 -162 -72 -162 -172v-511h-115v766h115v-83c39 62 103 96 186 96c140 0 239 -100 252 -244z" />
    <glyph glyph-name="uni056A" unicode="&#x56a;" horiz-adv-x="737" 
d="M477 260v186h-163c-97 0 -164 -80 -164 -181c0 -102 68 -180 166 -180c94 0 161 72 161 175zM290 532h187v251h115v-251h115v-86h-115v-185c0 -184 -134 -274 -304 -274c-150 0 -253 114 -253 274c0 156 96 271 255 271z" />
    <glyph glyph-name="uni056B" unicode="&#x56b;" horiz-adv-x="669" 
d="M205 -234h-115v1017h115v-344c38 74 106 106 190 106c130 0 204 -78 204 -205v-340h-115v308c0 80 -48 129 -128 129c-88 0 -143 -62 -151 -145v-526z" />
    <glyph glyph-name="uni056C" unicode="&#x56c;" horiz-adv-x="443" 
d="M205 -140h208v-94h-323v766h115v-672z" />
    <glyph glyph-name="uni056D" unicode="&#x56d;" horiz-adv-x="975" 
d="M775 532h115v-532h-115v95c-36 -74 -103 -108 -190 -108c-122 0 -195 78 -195 205v254h-185v-680h-115v1017h115v-251h300v-308c0 -80 47 -129 124 -129c92 0 146 73 146 166v271z" />
    <glyph glyph-name="uni056E" unicode="&#x56e;" horiz-adv-x="625" 
d="M313 83c95 0 162 70 162 173c0 41 -11 86 -30 117l-52 73h-80c-96 0 -163 -88 -163 -190c0 -103 67 -173 163 -173zM313 532h19l-190 251l80 58l231 -309h137v-86h-76l15 -22c37 -46 61 -107 61 -176c0 -151 -113 -261 -277 -261c-165 0 -278 110 -278 270
c0 161 113 275 278 275z" />
    <glyph glyph-name="uni056F" unicode="&#x56f;" horiz-adv-x="684" 
d="M479 532h115v-766h-115v327c-38 -74 -106 -106 -190 -106c-130 0 -204 78 -204 205v591h115v-559c0 -80 48 -129 128 -129c88 0 143 62 151 145v292z" />
    <glyph glyph-name="uni0570" unicode="&#x570;" horiz-adv-x="669" 
d="M205 0h-115v783h115v-344c38 74 106 106 190 106c130 0 204 -78 204 -205v-340h-115v308c0 80 -48 129 -128 129c-88 0 -143 -62 -151 -145v-292z" />
    <glyph glyph-name="uni0571" unicode="&#x571;" horiz-adv-x="661" 
d="M311 82h3c96 0 162 82 162 182c0 96 -61 175 -163 175c-55 0 -101 -24 -130 -65l-2 -2c-22 -32 -32 -71 -32 -107c0 -91 67 -183 162 -183zM310 620l-124 70l142 116l77 -43l-79 -65l130 -73l-111 -97c185 -18 246 -169 246 -260v-268h-115v91
c-33 -71 -96 -105 -178 -105c-155 0 -263 123 -263 269c0 123 76 192 152 258c41 35 85 74 123 107z" />
    <glyph glyph-name="uni0572" unicode="&#x572;" horiz-adv-x="739" 
d="M594 -140h115v-94h-230v542c0 80 -48 129 -128 129c-88 0 -143 -62 -151 -145v-292h-115v532h115v-93c38 74 106 106 190 106c130 0 204 -78 204 -205v-480z" />
    <glyph glyph-name="uni0573" unicode="&#x573;" horiz-adv-x="636" 
d="M152 94h329l-216 352c-79 -107 -113 -218 -113 -352zM337 533l269 -439v-94h-556v94c0 138 47 274 118 370l48 65l-53 87l88 57l37 -61c65 68 181 176 266 245l57 -74c-79 -64 -203 -172 -274 -250z" />
    <glyph glyph-name="uni0574" unicode="&#x574;" horiz-adv-x="772" 
d="M512 783h230v-94h-115v-689h-115v82c-38 -62 -102 -96 -187 -96c-153 0 -255 111 -255 273v272h115v-276c0 -101 67 -173 164 -173c96 0 163 72 163 173v528z" />
    <glyph glyph-name="uni0575" unicode="&#x575;" horiz-adv-x="398" 
d="M313 532v-587c0 -126 -87 -184 -166 -184c-46 0 -109 20 -136 77l57 72c16 -34 46 -48 72 -48c31 0 59 21 59 72v598h114z" />
    <glyph glyph-name="uni0576" unicode="&#x576;" horiz-adv-x="739" 
d="M145 689h-115v94h230v-559c0 -80 48 -129 128 -129c88 0 143 62 151 145v292h115v-532h-115v93c-38 -74 -106 -106 -190 -106c-130 0 -204 78 -204 205v497z" />
    <glyph glyph-name="uni0577" unicode="&#x577;" horiz-adv-x="579" 
d="M142 -124c0 -9 8 -16 24 -16h371v-94h-385c-83 0 -119 54 -119 105c0 38 22 68 49 86l249 162c71 46 100 105 100 165c0 92 -65 163 -160 163c-54 0 -113 -23 -159 -83l-82 63c59 78 148 118 260 118c113 0 254 -72 254 -263c0 -121 -57 -171 -147 -230
c-79 -52 -175 -115 -245 -160c-7 -5 -10 -11 -10 -16z" />
    <glyph glyph-name="uni0578" unicode="&#x578;" horiz-adv-x="655" 
d="M85 0v532h115v-95c36 74 103 108 190 108c122 0 195 -78 195 -205v-340h-115v308c0 80 -47 129 -124 129c-88 0 -146 -73 -146 -166v-271h-115z" />
    <glyph glyph-name="uni0579" unicode="&#x579;" horiz-adv-x="570" 
d="M164 -140h371v-94h-385c-84 0 -121 51 -121 104c0 43 23 68 57 91l297 191c4 2 5 5 5 8c0 4 -3 8 -9 9l-8 2c-200 24 -263 155 -263 271c0 38 7 73 18 103l107 -39c-7 -24 -11 -47 -11 -69c0 -88 57 -149 132 -164l82 -15c44 -8 68 -46 68 -86c0 -31 -15 -62 -47 -83
l-306 -196c-8 -6 -11 -10 -11 -17c0 -9 8 -16 24 -16z" />
    <glyph glyph-name="uni057A" unicode="&#x57a;" horiz-adv-x="1045" 
d="M840 532h115v-766h-115v329c-36 -74 -103 -108 -190 -108c-93 0 -158 46 -183 124l-7 -16c-36 -74 -108 -108 -195 -108c-122 0 -195 78 -195 205v340h115v-308c0 -80 47 -129 124 -129c92 0 146 73 146 165v272h115v-309c0 -79 47 -128 124 -128c92 0 146 73 146 166
v271z" />
    <glyph glyph-name="uni057B" unicode="&#x57b;" horiz-adv-x="597" 
d="M282 444c-57 0 -129 -27 -129 -86c0 -36 28 -69 57 -98c38 -38 57 -66 62 -119v-13c0 -26 -5 -53 -16 -76l89 54c58 35 102 92 102 167c0 95 -70 171 -165 171zM155 -124c0 -10 9 -16 25 -16h371v-94h-385c-83 0 -119 52 -119 105c0 24 7 55 41 78l47 31
c22 15 61 55 61 96c1 33 -26 79 -77 128c-54 52 -84 104 -84 152c0 25 8 49 23 69c9 14 81 120 236 120c183 0 268 -147 268 -271c0 -108 -64 -179 -151 -235c-80 -52 -164 -96 -245 -147c-5 -3 -11 -9 -11 -16z" />
    <glyph glyph-name="uni057C" unicode="&#x57c;" horiz-adv-x="739" 
d="M594 86h115v-86h-230v308c0 80 -48 129 -128 129c-88 0 -143 -62 -151 -145v-292h-115v532h115v-93c38 74 106 106 190 106c130 0 204 -78 204 -205v-254z" />
    <glyph glyph-name="uni057D" unicode="&#x57d;" horiz-adv-x="660" 
d="M575 532v-532h-115v95c-36 -74 -103 -108 -190 -108c-122 0 -195 78 -195 205v340h115v-308c0 -80 47 -129 124 -129c92 0 146 73 146 166v271h115z" />
    <glyph glyph-name="uni057E" unicode="&#x57e;" horiz-adv-x="724" 
d="M579 -140h115v-94h-230v327c-38 -74 -106 -106 -190 -106c-130 0 -204 78 -204 205v340h115v-308c0 -80 48 -129 128 -129c88 0 143 62 151 145v543h115v-923z" />
    <glyph glyph-name="uni057F" unicode="&#x57f;" horiz-adv-x="1025" 
d="M760 545c122 0 195 -78 195 -205v-340h-115v308c0 80 -47 129 -124 129c-92 0 -146 -73 -146 -166v-271h-115v95c-36 -74 -103 -108 -190 -108c-122 0 -195 78 -195 205v340h115v-308c0 -80 47 -129 124 -129c92 0 146 73 146 166v271h115v-95c36 74 103 108 190 108z
" />
    <glyph glyph-name="uni0580" unicode="&#x580;" horiz-adv-x="660" 
d="M90 -234v766h115v-95c36 74 103 108 190 108c122 0 195 -78 195 -205v-340h-115v308c0 80 -47 129 -124 129c-92 0 -146 -73 -146 -166v-505h-115z" />
    <glyph glyph-name="uni0581" unicode="&#x581;" horiz-adv-x="676" 
d="M314 83c93 0 163 75 163 172v18c0 99 -70 174 -163 174c-96 0 -164 -81 -164 -183c0 -101 67 -181 164 -181zM477 448v84h114v-520c0 -153 -109 -249 -273 -249c-86 0 -159 26 -224 70l49 83c50 -37 102 -58 164 -58c104 0 170 59 170 151v74c-38 -62 -102 -96 -185 -96
c-155 0 -257 119 -257 280s103 278 256 278c83 0 147 -35 186 -97z" />
    <glyph glyph-name="uni0582" unicode="&#x582;" horiz-adv-x="438" 
d="M200 94h208v-94h-323v532h115v-438z" />
    <glyph glyph-name="uni0583" unicode="&#x583;" horiz-adv-x="1025" 
d="M760 545c122 0 195 -78 195 -205v-340h-115v308c0 80 -47 129 -124 129c-92 0 -146 -73 -146 -166v-505h-115v329c-36 -74 -103 -108 -190 -108c-122 0 -195 78 -195 205v340h115v-308c0 -80 47 -129 124 -129c92 0 146 73 146 166v522h115v-346c36 74 103 108 190 108z
" />
    <glyph glyph-name="uni0584" unicode="&#x584;" horiz-adv-x="737" 
d="M406 447c-99 0 -166 -80 -166 -183c0 -101 67 -181 170 -181c90 0 157 62 157 178s-68 186 -161 186zM240 83v-157h462v-86h-462v-74h-115v74h-115v86h115v606h115v-84c39 62 103 97 186 97c153 0 256 -117 256 -278s-102 -280 -257 -280c-83 0 -147 34 -185 96z" />
    <glyph glyph-name="uni0587" unicode="&#x587;" horiz-adv-x="822" 
d="M802 95v-94h-323v93c-38 -74 -106 -107 -190 -107c-130 0 -204 79 -204 206v591h115v-559c0 -80 48 -129 128 -129c88 0 143 62 151 145v292h115v-438h208z" />
    <glyph glyph-name="uni0585" unicode="&#x585;" horiz-adv-x="626" 
d="M590 265c0 -160 -113 -278 -277 -278c-165 0 -278 118 -278 278c0 161 113 280 278 280c164 0 277 -119 277 -280zM150 264c0 -103 67 -181 163 -181c95 0 162 78 162 181c0 102 -67 182 -162 182c-96 0 -163 -80 -163 -182z" />
    <glyph glyph-name="uni0586" unicode="&#x586;" horiz-adv-x="654" 
d="M506 446h-134v-335c104 14 149 128 149 234c0 36 -5 71 -15 101zM140 532h117v155c-62 0 -118 -56 -118 -137c0 -6 0 -12 1 -18zM372 778v-246h211c24 -48 36 -115 36 -160v-25c0 -144 -50 -288 -247 -333v-248h-115v234h-220v100h220v346h-219c-2 19 -3 36 -3 53
c0 234 171 285 279 285c22 0 43 -2 58 -6z" />
    <glyph glyph-name="uni055B" unicode="&#x55b;" horiz-adv-x="266" 
d="M123 700h-103l107 149l119 -50z" />
    <glyph glyph-name="uni055D" unicode="&#x55d;" horiz-adv-x="266" 
d="M246 700h-103l-123 99l119 50z" />
    <glyph glyph-name="uni055C" unicode="&#x55c;" horiz-adv-x="332" 
d="M228 939h73c9 -20 11 -38 11 -55c0 -5 0 -11 -2 -17c-4 -18 -11 -35 -29 -49c-2 -2 -4 -4 -6 -5c-11 -8 -21 -13 -32 -17c-45 -12 -77 -14 -100 -21c-8 -3 -16 -6 -21 -11c-9 -7 -17 -17 -19 -27c-3 -17 1 -37 1 -37h-72c-10 20 -12 38 -12 54c0 6 1 12 2 18
c3 13 8 26 17 38c4 4 8 8 12 11c52 42 128 28 160 54c4 3 8 7 11 12c3 4 6 11 7 15c3 18 -1 37 -1 37z" />
    <glyph glyph-name="uni055E" unicode="&#x55e;" horiz-adv-x="207" 
d="M133 731l-20 44c21 5 32 18 32 31c0 20 -18 25 -35 25c-31 0 -51 -18 -51 -50c0 -20 6 -43 26 -81h-72c-23 34 -32 64 -32 89c0 63 60 104 120 104h4c64 0 100 -49 100 -92c0 -30 -19 -65 -72 -70z" />
    <glyph glyph-name="uni0589" unicode="&#x589;" horiz-adv-x="212" 
d="M109 123c36 0 63 -27 63 -65c0 -39 -27 -67 -63 -67s-63 28 -63 67c0 38 27 65 63 65zM109 420c36 0 63 -27 63 -65c0 -39 -27 -67 -63 -67s-63 28 -63 67c0 38 27 65 63 65z" />
    <glyph glyph-name="uniFB14" unicode="&#xfb14;" horiz-adv-x="1456" 
d="M1371 532v-86h-414v-222c0 -80 48 -129 128 -129c88 0 143 62 151 145v91h115v-331h-115v93c-38 -74 -106 -106 -189 -106c-131 0 -205 78 -205 205v497h-215v-689h-115v82c-38 -62 -102 -96 -187 -96c-153 0 -255 111 -255 273v272h115v-276c1 -101 67 -173 164 -173
c96 0 163 72 163 173v528h445v-251h414z" />
    <glyph glyph-name="uni0559" unicode="&#x559;" horiz-adv-x="192" 
 />
    <glyph glyph-name="uni055A" unicode="&#x55a;" horiz-adv-x="192" 
 />
    <glyph glyph-name="uni055F" unicode="&#x55f;" horiz-adv-x="467" 
 />
    <glyph glyph-name="uni058A" unicode="&#x58a;" horiz-adv-x="363" 
 />
    <glyph glyph-name="uni2116" unicode="&#x2116;" horiz-adv-x="1417" 
d="M1105 437c-96 0 -163 -70 -163 -172c0 -103 67 -173 163 -173c95 0 162 70 162 173c0 102 -67 172 -162 172zM583 700h116v-700h-116l-373 502v-502h-118v700h116l375 -503v503zM1105 536c164 0 277 -109 277 -270c0 -160 -113 -270 -277 -270c-165 0 -278 110 -278 270
c0 161 113 270 278 270z" />
    <glyph glyph-name="A" unicode="A" horiz-adv-x="667" 
d="M99 0h-101l275 716h103l293 -716h-108l-84 217h-299zM284 504l-79 -210h243l-75 198c-23 61 -40 110 -51 149c-9 -46 -21 -92 -38 -137z" />
    <glyph glyph-name="B" unicode="B" horiz-adv-x="667" 
d="M346 0h-273v716h269c55 0 99 -7 132 -22c66 -29 105 -96 105 -161c0 -61 -33 -119 -100 -152c87 -25 135 -90 135 -173c0 -68 -33 -129 -74 -160c-41 -32 -102 -48 -194 -48zM168 631v-216h155c42 0 72 3 90 8c48 15 73 48 73 99c0 23 -6 44 -17 62s-28 30 -49 37
s-58 10 -109 10h-143zM168 331v-246h178c31 0 52 1 65 3c60 11 105 47 105 120c0 27 -7 50 -20 70c-28 39 -71 53 -162 53h-166z" />
    <glyph glyph-name="C" unicode="C" horiz-adv-x="722" 
d="M588 251l95 -24c-40 -156 -148 -239 -297 -239c-77 0 -139 16 -187 47c-49 31 -86 77 -111 137c-25 59 -38 123 -38 191c0 75 14 140 43 196c56 111 168 169 295 169c143 0 245 -76 282 -208l-93 -22c-33 104 -95 149 -191 149c-55 0 -101 -13 -138 -39
c-37 -27 -63 -62 -78 -106c-15 -45 -22 -91 -22 -138c0 -61 9 -114 27 -159c35 -92 116 -136 203 -136c107 0 183 62 210 182z" />
    <glyph glyph-name="D" unicode="D" horiz-adv-x="722" 
d="M335 0h-258v716h247c55 0 98 -3 127 -10c41 -10 76 -27 105 -52c76 -64 113 -164 113 -292c0 -109 -28 -194 -68 -249c-58 -80 -132 -113 -266 -113zM172 631v-546h153c95 0 143 18 175 50c45 45 71 120 71 228c0 75 -12 133 -36 173c-25 40 -55 67 -90 81
c-25 9 -66 14 -123 14h-150z" />
    <glyph glyph-name="E" unicode="E" horiz-adv-x="667" 
d="M613 0h-534v716h518v-85h-423v-219h396v-84h-396v-243h439v-85z" />
    <glyph glyph-name="F" unicode="F" horiz-adv-x="611" 
d="M177 0h-95v716h483v-85h-388v-221h336v-85h-336v-325z" />
    <glyph glyph-name="G" unicode="G" horiz-adv-x="778" 
d="M623 281h-211v84h303v-265c-92 -75 -192 -112 -296 -112c-70 0 -134 15 -191 45c-116 60 -175 181 -175 322c0 69 15 134 44 195c59 120 172 178 315 178c51 0 98 -8 140 -25c84 -33 128 -91 153 -187l-86 -24c-11 37 -24 65 -40 86c-32 41 -95 69 -167 69
c-132 0 -203 -67 -234 -143c-18 -44 -27 -92 -27 -144c0 -63 11 -116 33 -159c44 -86 135 -128 230 -128c41 0 81 8 120 24s68 33 89 51v133z" />
    <glyph glyph-name="H" unicode="H" horiz-adv-x="722" 
d="M175 0h-95v716h95v-294h372v294h95v-716h-95v337h-372v-337z" />
    <glyph glyph-name="I" unicode="I" horiz-adv-x="278" 
d="M188 0h-95v716h95v-716z" />
    <glyph glyph-name="J" unicode="J" horiz-adv-x="500" 
d="M29 203l85 12c5 -109 42 -143 107 -143c23 0 44 6 61 17s29 25 36 44s10 49 10 90v493h94v-488c0 -60 -7 -106 -21 -139c-29 -65 -95 -101 -180 -101c-125 0 -195 72 -192 215z" />
    <glyph glyph-name="K" unicode="K" horiz-adv-x="667" 
d="M168 0h-95v716h95v-355l355 355h129l-300 -290l313 -426h-125l-255 362l-117 -114v-248z" />
    <glyph glyph-name="L" unicode="L" 
d="M521 0h-448v716h95v-631h353v-85z" />
    <glyph glyph-name="M" unicode="M" horiz-adv-x="833" 
d="M166 0h-92v716h143l169 -507c16 -47 27 -83 34 -106c9 26 22 64 39 115l171 498h127v-716h-91v599l-208 -599h-85l-207 609v-609z" />
    <glyph glyph-name="N" unicode="N" horiz-adv-x="722" 
d="M167 0h-91v716h97l376 -562v562h91v-716h-97l-376 563v-563z" />
    <glyph glyph-name="O" unicode="O" horiz-adv-x="778" 
d="M48 349c0 119 32 212 96 279s146 101 247 101c199 3 347 -159 342 -372c0 -73 -15 -138 -44 -195s-71 -101 -124 -130c-54 -29 -112 -44 -174 -44c-67 0 -128 16 -181 49c-53 32 -94 76 -121 133c-27 56 -41 116 -41 179zM146 347c0 -86 23 -154 70 -203
c46 -50 104 -75 174 -75c71 0 130 25 176 75s69 121 69 213c5 175 -101 291 -243 290c-67 0 -125 -23 -173 -69c-49 -46 -73 -123 -73 -231z" />
    <glyph glyph-name="P" unicode="P" horiz-adv-x="667" 
d="M172 0h-95v716h270c48 0 84 -2 109 -7c35 -6 65 -17 89 -33c47 -33 79 -96 79 -167c0 -61 -19 -112 -58 -154c-39 -43 -109 -64 -210 -64h-184v-291zM172 631v-255h185c123 0 169 47 169 130c0 60 -32 106 -83 119c-16 4 -45 6 -88 6h-183z" />
    <glyph glyph-name="Q" unicode="Q" horiz-adv-x="778" 
d="M620 77c44 -31 84 -53 121 -67l-28 -66c-51 19 -102 48 -153 88c-53 -29 -112 -44 -176 -44c-195 -4 -347 158 -341 370c0 71 14 135 43 193c57 116 169 178 300 178c199 3 347 -158 342 -371c0 -117 -36 -212 -108 -281zM388 129l23 69c55 -15 100 -38 135 -69
c56 51 84 128 84 229c4 173 -100 290 -244 289c-71 0 -129 -24 -175 -72c-47 -49 -70 -121 -70 -217c0 -93 23 -165 69 -214c46 -50 105 -75 176 -75c34 0 66 6 96 19c-29 19 -61 33 -94 41z" />
    <glyph glyph-name="R" unicode="R" horiz-adv-x="722" 
d="M173 0h-94v716h317c64 0 113 -6 146 -19c66 -26 109 -97 109 -176c0 -103 -65 -176 -202 -195c25 -12 44 -24 57 -36c28 -25 54 -57 79 -95l125 -195h-120l-94 149c-86 131 -113 153 -160 166c-11 2 -28 3 -53 3h-110v-318zM173 637v-237h204c128 -4 172 48 176 121
c0 67 -46 116 -153 116h-227z" />
    <glyph glyph-name="S" unicode="S" horiz-adv-x="667" 
d="M45 230l89 8c5 -36 15 -65 30 -88c31 -46 101 -77 182 -77c110 -2 180 55 177 121c0 45 -24 78 -83 101c-19 8 -62 20 -128 36c-66 15 -112 30 -138 44c-68 36 -102 89 -102 156c-5 110 106 202 252 197c160 4 267 -86 269 -214l-91 -7c-9 91 -63 138 -174 138
c-115 0 -164 -48 -164 -108c0 -25 9 -46 27 -63c19 -17 67 -34 144 -51s129 -33 158 -46c83 -39 122 -98 122 -175c3 -115 -111 -218 -265 -214c-65 0 -119 9 -162 28c-88 37 -140 118 -143 214z" />
    <glyph glyph-name="T" unicode="T" horiz-adv-x="611" 
d="M354 0h-95v631h-236v85h568v-85h-237v-631z" />
    <glyph glyph-name="U" unicode="U" horiz-adv-x="722" 
d="M547 303v413h95v-414c0 -72 -8 -129 -24 -171c-33 -85 -119 -143 -256 -143c-67 0 -122 11 -165 35c-85 46 -118 128 -118 279v414h94v-413c0 -62 6 -108 18 -137c23 -60 82 -93 163 -93c69 0 119 16 149 48c29 31 44 92 44 182z" />
    <glyph glyph-name="V" unicode="V" horiz-adv-x="667" 
d="M379 0h-97l-278 716h103l186 -520c15 -42 27 -81 38 -117c11 39 23 78 38 117l194 520h96z" />
    <glyph glyph-name="W" unicode="W" horiz-adv-x="944" 
d="M299 0h-97l-190 716h97l109 -469c12 -49 22 -98 31 -147c18 77 29 121 32 132l136 484h114l103 -362c25 -90 44 -175 56 -254c9 45 20 97 35 156l112 460h96l-197 -716h-91l-151 545c-13 46 -20 74 -22 84c-8 -33 -15 -61 -21 -84z" />
    <glyph glyph-name="X" unicode="X" horiz-adv-x="667" 
d="M118 0h-114l277 373l-244 343h113l130 -184c27 -38 46 -67 57 -88c16 26 35 53 57 82l144 190h103l-251 -338l271 -378h-117l-181 255c-10 15 -20 31 -31 48c-16 -26 -27 -44 -34 -53z" />
    <glyph glyph-name="Y" unicode="Y" horiz-adv-x="667" 
d="M374 0h-95v303l-276 413h115l141 -216c26 -40 50 -80 73 -121c21 37 47 79 78 126l139 211h110l-285 -413v-303z" />
    <glyph glyph-name="Z" unicode="Z" horiz-adv-x="611" 
d="M586 0h-566v88l367 458c26 33 51 61 74 85h-399v85h512v-85l-402 -496l-43 -50h457v-85z" />
    <glyph glyph-name="a" unicode="a" 
d="M404 64c-64 -55 -122 -76 -191 -76c-113 0 -177 62 -177 149c0 80 58 130 126 149c17 5 43 9 78 13c71 9 124 19 157 30c1 12 1 20 1 23c0 36 -8 61 -25 76c-23 20 -56 30 -100 30c-84 0 -117 -26 -136 -99l-86 12c20 109 96 157 234 159c137 -3 182 -45 196 -114
c3 -15 5 -42 5 -81v-118c0 -81 2 -133 6 -154c3 -22 11 -43 22 -63h-92c-9 18 -15 39 -18 64zM397 228v32c-32 -13 -80 -24 -144 -33c-36 -5 -61 -11 -76 -17c-30 -13 -47 -40 -47 -71c0 -47 36 -82 104 -82s124 32 149 83c9 20 14 49 14 88z" />
    <glyph glyph-name="b" unicode="b" 
d="M147 65v-65h-82v716h88v-256c37 47 85 70 142 70c64 0 125 -26 162 -73c36 -47 58 -115 58 -190c0 -89 -22 -157 -66 -206s-97 -73 -158 -73s-109 26 -144 77zM146 263c0 -62 8 -107 25 -135c28 -45 66 -67 113 -67c38 0 71 17 99 50s42 83 42 149c0 67 -13 117 -40 150
c-27 32 -59 48 -97 48c-39 0 -72 -17 -100 -50s-42 -82 -42 -145z" />
    <glyph glyph-name="c" unicode="c" horiz-adv-x="500" 
d="M404 190l87 -11c-19 -120 -103 -191 -216 -191c-71 0 -128 23 -171 70c-43 46 -65 112 -65 199c0 56 9 105 28 147c37 84 120 126 208 126c113 0 187 -59 207 -164l-85 -13c-16 69 -59 105 -118 105c-89 0 -150 -61 -150 -198c0 -140 60 -199 145 -199
c69 0 118 41 130 129z" />
    <glyph glyph-name="d" unicode="d" 
d="M484 0h-82v65c-33 -51 -81 -77 -145 -77c-125 -1 -227 112 -223 271c-5 156 91 276 219 271c63 0 113 -28 144 -71v257h87v-716zM125 259c0 -67 14 -116 42 -149s61 -49 99 -49s71 16 98 47s40 79 40 144c0 71 -14 123 -41 156s-61 50 -101 50c-79 0 -137 -62 -137 -199z
" />
    <glyph glyph-name="e" unicode="e" 
d="M421 167l91 -11c-29 -107 -108 -168 -228 -168c-76 0 -136 23 -180 70c-45 47 -67 112 -67 197c0 87 22 155 67 203s103 72 175 72c69 0 126 -23 170 -70s66 -114 66 -200c0 -5 0 -13 -1 -23h-387c7 -115 70 -176 157 -176c65 0 110 31 137 106zM132 309h290
c-4 44 -15 77 -33 98c-28 34 -64 51 -109 51c-81 0 -141 -58 -148 -149z" />
    <glyph glyph-name="f" unicode="f" horiz-adv-x="278" 
d="M174 0h-87v450h-78v69h78v55c0 35 3 60 9 77c17 47 58 77 135 77c25 0 52 -3 82 -9l-14 -76c-18 3 -35 5 -51 5c-53 0 -74 -19 -74 -82v-47h101v-69h-101v-450z" />
    <glyph glyph-name="g" unicode="g" 
d="M50 -43l85 -13c4 -26 14 -45 30 -57c22 -17 52 -25 89 -25c81 0 124 34 140 93c4 18 6 56 6 113c-39 -45 -87 -68 -144 -68c-71 0 -126 26 -165 77s-59 113 -59 185c-2 149 87 273 225 268c61 0 112 -25 151 -74v63h81v-449c0 -81 -8 -138 -24 -172
c-33 -67 -106 -108 -210 -108c-62 0 -112 14 -150 41c-38 28 -56 70 -55 126zM123 269c0 -136 61 -196 142 -196c40 0 74 16 101 47s41 79 41 146c0 63 -14 111 -42 144c-28 32 -62 48 -102 48c-39 0 -72 -16 -99 -48s-41 -79 -41 -141z" />
    <glyph glyph-name="h" unicode="h" 
d="M154 0h-88v716h88v-257c41 47 92 71 155 71c39 0 72 -7 101 -22c56 -30 78 -78 78 -179v-329h-88v329c0 88 -40 126 -109 126c-26 0 -50 -7 -73 -20c-46 -28 -64 -70 -64 -151v-284z" />
    <glyph glyph-name="i" unicode="i" horiz-adv-x="222" 
d="M154 615h-88v101h88v-101zM154 0h-88v519h88v-519z" />
    <glyph glyph-name="j" unicode="j" horiz-adv-x="222" 
d="M153 614h-88v102h88v-102zM-46 -201l17 74c17 -4 31 -6 41 -6c18 0 31 6 40 17c9 12 13 42 13 90v545h88v-547c0 -64 -8 -109 -25 -134c-21 -32 -56 -48 -105 -48c-24 0 -47 3 -69 9z" />
    <glyph glyph-name="k" unicode="k" horiz-adv-x="500" 
d="M154 0h-88v716h88v-408l208 211h114l-198 -193l218 -326h-108l-172 265l-62 -59v-206z" />
    <glyph glyph-name="l" unicode="l" horiz-adv-x="222" 
d="M152 0h-88v716h88v-716z" />
    <glyph glyph-name="m" unicode="m" horiz-adv-x="833" 
d="M154 0h-88v519h79v-73c32 51 88 84 157 84c76 0 126 -34 146 -90c41 60 95 90 160 90c104 0 161 -55 161 -174v-356h-88v327c0 35 -3 60 -8 76c-12 31 -44 51 -84 51c-73 0 -127 -46 -127 -153v-301h-88v337c0 79 -27 117 -92 117c-25 0 -47 -6 -68 -19
c-42 -26 -60 -71 -60 -166v-269z" />
    <glyph glyph-name="n" unicode="n" 
d="M154 0h-88v519h79v-74c38 57 93 85 165 85c31 0 60 -5 87 -16c52 -22 76 -59 85 -110c3 -16 5 -44 5 -85v-319h-88v315c0 36 -3 63 -10 81c-13 35 -50 58 -97 58c-38 0 -70 -12 -97 -35c-27 -24 -41 -69 -41 -136v-283z" />
    <glyph glyph-name="o" unicode="o" 
d="M33 259c0 96 27 167 80 214c45 38 99 57 163 57c71 0 130 -23 175 -70s68 -111 68 -193c0 -67 -10 -119 -30 -157c-40 -77 -122 -122 -213 -122c-72 0 -130 23 -175 70s-68 114 -68 201zM124 259c0 -132 64 -198 152 -198s153 65 153 201c0 64 -15 113 -44 146
s-66 50 -109 50c-88 0 -152 -66 -152 -199z" />
    <glyph glyph-name="p" unicode="p" 
d="M154 -199h-88v718h80v-68c37 53 83 79 150 79c135 5 222 -118 220 -267c0 -53 -9 -100 -28 -143c-38 -85 -118 -132 -198 -132c-59 0 -107 27 -136 66v-253zM146 256c0 -67 14 -116 41 -147c27 -32 59 -48 97 -48c39 0 73 17 101 50c27 33 41 84 41 153
c0 66 -13 115 -40 148s-60 49 -98 49c-37 0 -70 -17 -99 -52s-43 -86 -43 -153z" />
    <glyph glyph-name="q" unicode="q" 
d="M484 -199h-87v254c-28 -39 -81 -67 -136 -67c-61 0 -114 25 -159 74s-67 117 -67 202c-4 158 94 270 219 266c64 0 114 -27 151 -81v70h79v-718zM126 261c0 -67 14 -117 42 -150s61 -50 100 -50c37 0 70 16 97 48c27 31 40 79 40 144c0 69 -14 121 -42 156
c-29 35 -62 52 -101 52c-38 0 -70 -16 -96 -48c-27 -33 -40 -83 -40 -152z" />
    <glyph glyph-name="r" unicode="r" horiz-adv-x="333" 
d="M153 0h-88v519h79v-79c40 73 72 90 112 90c30 0 60 -9 91 -28l-31 -82c-21 13 -43 20 -64 20c-39 0 -72 -25 -84 -66c-10 -31 -15 -65 -15 -102v-272z" />
    <glyph glyph-name="s" unicode="s" horiz-adv-x="500" 
d="M31 155l87 14c9 -71 54 -108 134 -108c81 0 119 38 119 82c0 20 -9 36 -26 47c-12 8 -42 18 -90 30c-64 16 -108 30 -133 42c-50 24 -77 68 -77 119c0 47 23 88 60 113c27 20 78 36 131 36c41 0 77 -6 108 -17c62 -24 87 -61 98 -128l-86 -12c-8 53 -45 85 -113 85
c-81 0 -113 -31 -113 -67c0 -23 14 -42 45 -54c9 -3 34 -11 77 -22c63 -17 106 -30 131 -41c48 -21 78 -62 78 -122c2 -88 -85 -167 -209 -164c-135 0 -202 56 -221 167z" />
    <glyph glyph-name="t" unicode="t" horiz-adv-x="278" 
d="M258 79l13 -78c-25 -5 -48 -8 -67 -8c-32 0 -57 5 -74 15s-30 23 -37 40s-11 51 -11 104v298h-64v69h64v128l87 53v-181h89v-69h-89v-303c0 -25 2 -41 5 -48c7 -14 20 -24 45 -24c10 0 23 1 39 4z" />
    <glyph glyph-name="u" unicode="u" 
d="M484 0h-78v76c-41 -59 -96 -88 -165 -88c-31 0 -59 6 -85 18c-53 23 -76 58 -87 109c-3 17 -5 45 -5 82v322h88v-288c0 -46 2 -77 5 -93c12 -45 49 -74 102 -74c26 0 51 7 74 21c47 27 64 67 64 156v278h87v-519z" />
    <glyph glyph-name="v" unicode="v" horiz-adv-x="500" 
d="M292 0h-82l-197 519h93l111 -311c12 -33 23 -68 33 -104c8 27 19 60 33 98l115 317h90z" />
    <glyph glyph-name="w" unicode="w" horiz-adv-x="722" 
d="M253 0h-91l-159 519h91l113 -411c1 5 10 41 27 107l82 304h91l103 -400l119 400h85l-162 -519h-91l-83 311l-20 88z" />
    <glyph glyph-name="x" unicode="x" horiz-adv-x="500" 
d="M114 0h-107l190 270l-175 249h109l80 -122c15 -23 27 -43 36 -58c15 21 28 40 40 57l87 123h105l-179 -245l193 -274h-108l-135 205z" />
    <glyph glyph-name="y" unicode="y" horiz-adv-x="500" 
d="M62 -200l-10 83c19 -5 36 -8 51 -8c39 0 60 13 75 37c6 9 15 30 27 65c2 5 5 13 8 22l-197 520h95l108 -301c14 -38 26 -78 37 -120c11 41 23 80 37 118l110 303h88l-197 -528c-21 -57 -38 -96 -49 -118c-32 -57 -70 -83 -126 -83c-17 0 -36 3 -57 10z" />
    <glyph glyph-name="z" unicode="z" horiz-adv-x="500" 
d="M479 0h-459v71l330 379c-37 -2 -70 -3 -99 -3h-212v72h424v-59l-281 -329l-54 -60c39 3 76 5 111 5h240v-76z" />
  </font>
</defs>
</svg>
